<?xml version="1.0" standalone="no"?>
<!DOCTYPE svg PUBLIC "-//W3C//DTD SVG 20010904//EN"
 "http://www.w3.org/TR/2001/REC-SVG-20010904/DTD/svg10.dtd">
<svg version="1.0" xmlns="http://www.w3.org/2000/svg"
 width="225.000000pt" height="224.000000pt" viewBox="0 0 225.000000 224.000000"
 preserveAspectRatio="xMidYMid meet">
<metadata>
Created by potrace 1.15, written by Peter Selinger 2001-2017
</metadata>
<g transform="translate(0.000000,224.000000) scale(0.100000,-0.100000)"
fill="#000000" stroke="none">
<path d="M895 2200 c-169 -36 -331 -116 -469 -232 -187 -157 -302 -338 -360
-564 -22 -85 -27 -124 -28 -260 -1 -92 3 -186 11 -224 90 -476 494 -844 972
-888 406 -37 788 142 1018 477 80 117 83 132 34 155 -75 35 -802 471 -802 481
-1 6 25 24 57 41 80 44 774 442 779 447 2 3 -10 29 -28 58 -150 247 -381 421
-664 500 -115 32 -390 37 -520 9z m350 -71 c243 -30 465 -142 630 -320 52 -56
115 -141 115 -156 -1 -6 -329 -198 -519 -303 -26 -14 -103 -58 -173 -99 -113
-65 -128 -77 -128 -100 0 -14 4 -31 8 -36 4 -6 190 -120 413 -254 l407 -243
-41 -62 c-47 -72 -141 -172 -212 -225 -74 -55 -152 -101 -160 -93 -3 3 -10 0
-15 -7 -11 -18 -61 -37 -195 -72 -217 -57 -457 -34 -670 66 -248 116 -439 332
-531 603 -47 137 -58 359 -25 519 59 283 250 536 510 672 105 54 236 96 346
110 101 12 139 12 240 0z"/>
<path d="M1178 1847 c-89 -40 -123 -138 -75 -222 63 -112 201 -115 274 -6 29
42 30 108 4 159 -35 68 -131 100 -203 69z"/>
</g>
</svg>
